<svg width="500" height="580" viewBox="0 0 500 580" xmlns="http://www.w3.org/2000/svg">
  <defs>
    <linearGradient id="bgharbour" x1="0" y1="0" x2="0.1" y2="1">
      <stop offset="0%"  stop-color="#041018"/>
      <stop offset="55%" stop-color="#062028"/>
      <stop offset="100%" stop-color="#020a10"/>
    </linearGradient>
    <!-- Water reflection -->
    <linearGradient id="water" x1="0" y1="0" x2="0" y2="1">
      <stop offset="0%"  stop-color="#0a3a3a" stop-opacity="0.3"/>
      <stop offset="100%" stop-color="#021820" stop-opacity="0"/>
    </linearGradient>
    <!-- Container colours: stacked rows like a database -->
    <linearGradient id="rowA" x1="0" y1="0" x2="0" y2="1">
      <stop offset="0%"  stop-color="#1D9E75"/>
      <stop offset="100%" stop-color="#0F6E56"/>
    </linearGradient>
    <linearGradient id="rowB" x1="0" y1="0" x2="0" y2="1">
      <stop offset="0%"  stop-color="#21908C"/>
      <stop offset="100%" stop-color="#0F6E56"/>
    </linearGradient>
    <linearGradient id="rowC" x1="0" y1="0" x2="0" y2="1">
      <stop offset="0%"  stop-color="#80CBC4"/>
      <stop offset="100%" stop-color="#21908C"/>
    </linearGradient>
    <linearGradient id="skyline" x1="0" y1="0" x2="0" y2="1">
      <stop offset="0%"  stop-color="#0F6E56" stop-opacity="0"/>
      <stop offset="100%" stop-color="#0F6E56" stop-opacity="0.4"/>
    </linearGradient>
    <clipPath id="hexharbour">
      <polygon points="250,30 455,145 455,375 250,490 45,375 45,145"/>
    </clipPath>
  </defs>

  <polygon points="250,30 455,145 455,375 250,490 45,375 45,145" fill="url(#bgharbour)"/>

  <g clip-path="url(#hexharbour)">

    <!-- ══════════════════════════════════════════════════════ -->
    <!-- DISTANT HARBOUR SKYLINE — faint silhouette top-right  -->
    <!-- Crane + warehouse hint                                -->
    <!-- ══════════════════════════════════════════════════════ -->
    <rect x="355" y="178" width="22" height="32" fill="#0a3a30" opacity="0.5"/>
    <rect x="378" y="170" width="14" height="40" fill="#0a3a30" opacity="0.55"/>
    <rect x="393" y="185" width="18" height="25" fill="#0a3a30" opacity="0.45"/>
    <!-- Tiny crane on top of warehouse -->
    <line x1="386" y1="170" x2="386" y2="155" stroke="#0F6E56" stroke-width="1.2" opacity="0.7"/>
    <line x1="386" y1="155" x2="408" y2="155" stroke="#0F6E56" stroke-width="1.2" opacity="0.7"/>
    <line x1="408" y1="155" x2="408" y2="168" stroke="#0F6E56" stroke-width="0.8" opacity="0.6"/>
    <line x1="386" y1="155" x2="372" y2="155" stroke="#0F6E56" stroke-width="1" opacity="0.6"/>
    <line x1="372" y1="155" x2="386" y2="170" stroke="#0F6E56" stroke-width="0.8" opacity="0.5"/>
    <!-- Roof lines -->
    <line x1="355" y1="178" x2="377" y2="178" stroke="#1D9E75" stroke-width="0.8" opacity="0.6"/>
    <line x1="393" y1="185" x2="411" y2="185" stroke="#1D9E75" stroke-width="0.8" opacity="0.5"/>
    <!-- Small lit windows -->
    <rect x="360" y="190" width="3" height="3" fill="#FDE725" opacity="0.4"/>
    <rect x="368" y="198" width="3" height="3" fill="#FDE725" opacity="0.35"/>
    <rect x="382" y="180" width="2" height="2" fill="#FDE725" opacity="0.4"/>
    <rect x="382" y="195" width="2" height="2" fill="#FDE725" opacity="0.3"/>
    <rect x="398" y="195" width="2" height="2" fill="#FDE725" opacity="0.35"/>

    <!-- ══════════════════════════════════════════════════════ -->
    <!-- DOCK / PIER — horizontal platform                     -->
    <!-- ══════════════════════════════════════════════════════ -->
    <rect x="60" y="320" width="380" height="10" fill="#0F6E56" opacity="0.9"/>
    <rect x="60" y="320" width="380" height="3" fill="#1D9E75" opacity="0.85"/>
    <!-- Pier slats -->
    <line x1="100" y1="320" x2="100" y2="330" stroke="#08382C" stroke-width="0.8" opacity="0.6"/>
    <line x1="140" y1="320" x2="140" y2="330" stroke="#08382C" stroke-width="0.8" opacity="0.6"/>
    <line x1="180" y1="320" x2="180" y2="330" stroke="#08382C" stroke-width="0.8" opacity="0.6"/>
    <line x1="220" y1="320" x2="220" y2="330" stroke="#08382C" stroke-width="0.8" opacity="0.6"/>
    <line x1="260" y1="320" x2="260" y2="330" stroke="#08382C" stroke-width="0.8" opacity="0.6"/>
    <line x1="300" y1="320" x2="300" y2="330" stroke="#08382C" stroke-width="0.8" opacity="0.6"/>
    <line x1="340" y1="320" x2="340" y2="330" stroke="#08382C" stroke-width="0.8" opacity="0.6"/>
    <line x1="380" y1="320" x2="380" y2="330" stroke="#08382C" stroke-width="0.8" opacity="0.6"/>
    <line x1="420" y1="320" x2="420" y2="330" stroke="#08382C" stroke-width="0.8" opacity="0.6"/>

    <!-- Mooring bollards -->
    <rect x="78"  y="312" width="6" height="10" rx="2" fill="#1D9E75" opacity="0.85"/>
    <rect x="412" y="312" width="6" height="10" rx="2" fill="#1D9E75" opacity="0.85"/>

    <!-- ══════════════════════════════════════════════════════ -->
    <!-- STACKED DATA CONTAINERS — like database rows on dock  -->
    <!-- Three "ships" / container stacks on the dock          -->
    <!-- Each = a SeaTable "base" with column-coded rows       -->
    <!-- ══════════════════════════════════════════════════════ -->

    <!-- ── CONTAINER STACK 1 — left (a SeaTable base) ── -->
    <!-- Hull/ship body -->
    <path d="M 95,295 L 95,318 L 175,318 L 185,295 Z"
      fill="#08382C" stroke="#0F6E56" stroke-width="1.2" opacity="0.95"/>
    <!-- waterline -->
    <line x1="95" y1="312" x2="183" y2="312" stroke="#1D9E75" stroke-width="0.6" opacity="0.5"/>
    <!-- Containers stacked on hull (table rows) -->
    <!-- Row 1 (header) -->
    <rect x="100" y="240" width="80" height="11" rx="1" fill="#0F6E56" stroke="#1D9E75" stroke-width="0.8" opacity="0.95"/>
    <!-- column dividers in header -->
    <line x1="120" y1="240" x2="120" y2="251" stroke="#80CBC4" stroke-width="0.4" opacity="0.5"/>
    <line x1="140" y1="240" x2="140" y2="251" stroke="#80CBC4" stroke-width="0.4" opacity="0.5"/>
    <line x1="160" y1="240" x2="160" y2="251" stroke="#80CBC4" stroke-width="0.4" opacity="0.5"/>
    <!-- header text hint -->
    <line x1="103" y1="245" x2="116" y2="245" stroke="#80CBC4" stroke-width="0.7" opacity="0.7"/>
    <line x1="123" y1="245" x2="136" y2="245" stroke="#80CBC4" stroke-width="0.7" opacity="0.7"/>
    <line x1="143" y1="245" x2="156" y2="245" stroke="#80CBC4" stroke-width="0.7" opacity="0.7"/>
    <line x1="163" y1="245" x2="176" y2="245" stroke="#80CBC4" stroke-width="0.7" opacity="0.7"/>

    <!-- Row 2 -->
    <rect x="100" y="252" width="80" height="10" rx="1" fill="url(#rowA)" stroke="#1D9E75" stroke-width="0.6" opacity="0.92"/>
    <line x1="120" y1="252" x2="120" y2="262" stroke="#021820" stroke-width="0.4" opacity="0.6"/>
    <line x1="140" y1="252" x2="140" y2="262" stroke="#021820" stroke-width="0.4" opacity="0.6"/>
    <line x1="160" y1="252" x2="160" y2="262" stroke="#021820" stroke-width="0.4" opacity="0.6"/>
    <line x1="103" y1="257" x2="115" y2="257" stroke="#021820" stroke-width="0.5" opacity="0.45"/>
    <line x1="123" y1="257" x2="135" y2="257" stroke="#021820" stroke-width="0.5" opacity="0.4"/>
    <line x1="143" y1="257" x2="155" y2="257" stroke="#021820" stroke-width="0.5" opacity="0.4"/>
    <line x1="163" y1="257" x2="173" y2="257" stroke="#021820" stroke-width="0.5" opacity="0.4"/>

    <!-- Row 3 -->
    <rect x="100" y="263" width="80" height="10" rx="1" fill="url(#rowB)" stroke="#1D9E75" stroke-width="0.6" opacity="0.92"/>
    <line x1="120" y1="263" x2="120" y2="273" stroke="#021820" stroke-width="0.4" opacity="0.6"/>
    <line x1="140" y1="263" x2="140" y2="273" stroke="#021820" stroke-width="0.4" opacity="0.6"/>
    <line x1="160" y1="263" x2="160" y2="273" stroke="#021820" stroke-width="0.4" opacity="0.6"/>
    <line x1="103" y1="268" x2="115" y2="268" stroke="#021820" stroke-width="0.5" opacity="0.45"/>
    <line x1="123" y1="268" x2="135" y2="268" stroke="#021820" stroke-width="0.5" opacity="0.4"/>
    <line x1="143" y1="268" x2="155" y2="268" stroke="#021820" stroke-width="0.5" opacity="0.4"/>

    <!-- Row 4 -->
    <rect x="100" y="274" width="80" height="10" rx="1" fill="url(#rowA)" stroke="#1D9E75" stroke-width="0.6" opacity="0.88"/>
    <line x1="120" y1="274" x2="120" y2="284" stroke="#021820" stroke-width="0.4" opacity="0.5"/>
    <line x1="140" y1="274" x2="140" y2="284" stroke="#021820" stroke-width="0.4" opacity="0.5"/>
    <line x1="160" y1="274" x2="160" y2="284" stroke="#021820" stroke-width="0.4" opacity="0.5"/>
    <line x1="103" y1="279" x2="115" y2="279" stroke="#021820" stroke-width="0.5" opacity="0.4"/>
    <line x1="123" y1="279" x2="135" y2="279" stroke="#021820" stroke-width="0.5" opacity="0.4"/>

    <!-- Row 5 -->
    <rect x="100" y="285" width="80" height="10" rx="1" fill="url(#rowC)" stroke="#1D9E75" stroke-width="0.6" opacity="0.85"/>
    <line x1="120" y1="285" x2="120" y2="295" stroke="#021820" stroke-width="0.4" opacity="0.5"/>
    <line x1="140" y1="285" x2="140" y2="295" stroke="#021820" stroke-width="0.4" opacity="0.5"/>
    <line x1="160" y1="285" x2="160" y2="295" stroke="#021820" stroke-width="0.4" opacity="0.5"/>
    <line x1="103" y1="290" x2="115" y2="290" stroke="#021820" stroke-width="0.5" opacity="0.4"/>
    <line x1="143" y1="290" x2="155" y2="290" stroke="#021820" stroke-width="0.5" opacity="0.35"/>

    <!-- ── CONTAINER STACK 2 — CENTRE (the focal SeaTable base) ── -->
    <!-- Larger, primary focus -->
    <!-- Hull -->
    <path d="M 205,300 L 200,322 L 318,322 L 313,300 Z"
      fill="#08382C" stroke="#0F6E56" stroke-width="1.5" opacity="0.97"/>
    <line x1="202" y1="316" x2="316" y2="316" stroke="#1D9E75" stroke-width="0.6" opacity="0.55"/>

    <!-- Mast / API connection point -->
    <line x1="259" y1="232" x2="259" y2="180" stroke="#FDE725" stroke-width="1.4" opacity="0.85"/>
    <!-- Pennant / API flag -->
    <polygon points="259,180 282,185 259,192" fill="#FDE725" opacity="0.85"/>
    <!-- API label dot at top of mast -->
    <circle cx="259" cy="180" r="3" fill="#FDE725" opacity="0.95"/>
    <circle cx="259" cy="180" r="6" fill="#FDE725" opacity="0.18"/>

    <!-- Header row -->
    <rect x="210" y="230" width="100" height="12" rx="1.2" fill="#1D9E75" stroke="#80CBC4" stroke-width="0.9" opacity="0.97"/>
    <line x1="235" y1="230" x2="235" y2="242" stroke="#80CBC4" stroke-width="0.5" opacity="0.65"/>
    <line x1="260" y1="230" x2="260" y2="242" stroke="#80CBC4" stroke-width="0.5" opacity="0.65"/>
    <line x1="285" y1="230" x2="285" y2="242" stroke="#80CBC4" stroke-width="0.5" opacity="0.65"/>
    <line x1="214" y1="236" x2="231" y2="236" stroke="#021820" stroke-width="0.9" opacity="0.7"/>
    <line x1="239" y1="236" x2="256" y2="236" stroke="#021820" stroke-width="0.9" opacity="0.7"/>
    <line x1="264" y1="236" x2="281" y2="236" stroke="#021820" stroke-width="0.9" opacity="0.7"/>
    <line x1="289" y1="236" x2="306" y2="236" stroke="#021820" stroke-width="0.9" opacity="0.7"/>

    <!-- Data rows -->
    <g>
      <rect x="210" y="243" width="100" height="11" rx="1" fill="url(#rowB)" stroke="#1D9E75" stroke-width="0.7" opacity="0.95"/>
      <line x1="235" y1="243" x2="235" y2="254" stroke="#021820" stroke-width="0.4" opacity="0.6"/>
      <line x1="260" y1="243" x2="260" y2="254" stroke="#021820" stroke-width="0.4" opacity="0.6"/>
      <line x1="285" y1="243" x2="285" y2="254" stroke="#021820" stroke-width="0.4" opacity="0.6"/>
      <line x1="214" y1="249" x2="230" y2="249" stroke="#021820" stroke-width="0.5" opacity="0.5"/>
      <line x1="239" y1="249" x2="255" y2="249" stroke="#021820" stroke-width="0.5" opacity="0.45"/>
      <line x1="264" y1="249" x2="280" y2="249" stroke="#021820" stroke-width="0.5" opacity="0.45"/>
      <line x1="289" y1="249" x2="305" y2="249" stroke="#021820" stroke-width="0.5" opacity="0.45"/>
    </g>
    <g>
      <rect x="210" y="255" width="100" height="11" rx="1" fill="url(#rowA)" stroke="#1D9E75" stroke-width="0.7" opacity="0.94"/>
      <line x1="235" y1="255" x2="235" y2="266" stroke="#021820" stroke-width="0.4" opacity="0.6"/>
      <line x1="260" y1="255" x2="260" y2="266" stroke="#021820" stroke-width="0.4" opacity="0.6"/>
      <line x1="285" y1="255" x2="285" y2="266" stroke="#021820" stroke-width="0.4" opacity="0.6"/>
      <line x1="214" y1="261" x2="230" y2="261" stroke="#021820" stroke-width="0.5" opacity="0.5"/>
      <line x1="239" y1="261" x2="255" y2="261" stroke="#021820" stroke-width="0.5" opacity="0.45"/>
      <line x1="264" y1="261" x2="280" y2="261" stroke="#021820" stroke-width="0.5" opacity="0.45"/>
    </g>
    <g>
      <rect x="210" y="267" width="100" height="11" rx="1" fill="url(#rowC)" stroke="#1D9E75" stroke-width="0.7" opacity="0.92"/>
      <line x1="235" y1="267" x2="235" y2="278" stroke="#021820" stroke-width="0.4" opacity="0.55"/>
      <line x1="260" y1="267" x2="260" y2="278" stroke="#021820" stroke-width="0.4" opacity="0.55"/>
      <line x1="285" y1="267" x2="285" y2="278" stroke="#021820" stroke-width="0.4" opacity="0.55"/>
      <line x1="214" y1="273" x2="230" y2="273" stroke="#021820" stroke-width="0.5" opacity="0.5"/>
      <line x1="239" y1="273" x2="255" y2="273" stroke="#021820" stroke-width="0.5" opacity="0.45"/>
      <line x1="289" y1="273" x2="305" y2="273" stroke="#021820" stroke-width="0.5" opacity="0.45"/>
    </g>
    <g>
      <rect x="210" y="279" width="100" height="11" rx="1" fill="url(#rowB)" stroke="#1D9E75" stroke-width="0.7" opacity="0.9"/>
      <line x1="235" y1="279" x2="235" y2="290" stroke="#021820" stroke-width="0.4" opacity="0.55"/>
      <line x1="260" y1="279" x2="260" y2="290" stroke="#021820" stroke-width="0.4" opacity="0.55"/>
      <line x1="285" y1="279" x2="285" y2="290" stroke="#021820" stroke-width="0.4" opacity="0.55"/>
      <line x1="214" y1="285" x2="230" y2="285" stroke="#021820" stroke-width="0.5" opacity="0.5"/>
      <line x1="264" y1="285" x2="280" y2="285" stroke="#021820" stroke-width="0.5" opacity="0.45"/>
    </g>
    <g>
      <rect x="210" y="291" width="100" height="9" rx="1" fill="url(#rowA)" stroke="#1D9E75" stroke-width="0.7" opacity="0.87"/>
      <line x1="235" y1="291" x2="235" y2="300" stroke="#021820" stroke-width="0.4" opacity="0.5"/>
      <line x1="260" y1="291" x2="260" y2="300" stroke="#021820" stroke-width="0.4" opacity="0.5"/>
      <line x1="285" y1="291" x2="285" y2="300" stroke="#021820" stroke-width="0.4" opacity="0.5"/>
      <line x1="214" y1="296" x2="230" y2="296" stroke="#021820" stroke-width="0.5" opacity="0.45"/>
      <line x1="239" y1="296" x2="255" y2="296" stroke="#021820" stroke-width="0.5" opacity="0.4"/>
    </g>

    <!-- ── CONTAINER STACK 3 — right (smaller base) ── -->
    <path d="M 338,300 L 333,318 L 408,318 L 415,300 Z"
      fill="#08382C" stroke="#0F6E56" stroke-width="1.2" opacity="0.95"/>
    <line x1="335" y1="313" x2="412" y2="313" stroke="#1D9E75" stroke-width="0.6" opacity="0.5"/>

    <!-- Header -->
    <rect x="342" y="252" width="68" height="10" rx="1" fill="#0F6E56" stroke="#1D9E75" stroke-width="0.7" opacity="0.94"/>
    <line x1="362" y1="252" x2="362" y2="262" stroke="#80CBC4" stroke-width="0.4" opacity="0.5"/>
    <line x1="382" y1="252" x2="382" y2="262" stroke="#80CBC4" stroke-width="0.4" opacity="0.5"/>
    <line x1="345" y1="257" x2="358" y2="257" stroke="#80CBC4" stroke-width="0.6" opacity="0.7"/>
    <line x1="365" y1="257" x2="378" y2="257" stroke="#80CBC4" stroke-width="0.6" opacity="0.7"/>
    <line x1="385" y1="257" x2="406" y2="257" stroke="#80CBC4" stroke-width="0.6" opacity="0.7"/>

    <!-- Rows -->
    <rect x="342" y="263" width="68" height="9" rx="1" fill="url(#rowC)" stroke="#1D9E75" stroke-width="0.6" opacity="0.9"/>
    <line x1="362" y1="263" x2="362" y2="272" stroke="#021820" stroke-width="0.4" opacity="0.5"/>
    <line x1="382" y1="263" x2="382" y2="272" stroke="#021820" stroke-width="0.4" opacity="0.5"/>
    <line x1="345" y1="268" x2="358" y2="268" stroke="#021820" stroke-width="0.4" opacity="0.4"/>
    <line x1="385" y1="268" x2="405" y2="268" stroke="#021820" stroke-width="0.4" opacity="0.4"/>

    <rect x="342" y="273" width="68" height="9" rx="1" fill="url(#rowB)" stroke="#1D9E75" stroke-width="0.6" opacity="0.88"/>
    <line x1="362" y1="273" x2="362" y2="282" stroke="#021820" stroke-width="0.4" opacity="0.5"/>
    <line x1="382" y1="273" x2="382" y2="282" stroke="#021820" stroke-width="0.4" opacity="0.5"/>
    <line x1="345" y1="278" x2="358" y2="278" stroke="#021820" stroke-width="0.4" opacity="0.4"/>
    <line x1="365" y1="278" x2="378" y2="278" stroke="#021820" stroke-width="0.4" opacity="0.4"/>

    <rect x="342" y="283" width="68" height="9" rx="1" fill="url(#rowA)" stroke="#1D9E75" stroke-width="0.6" opacity="0.85"/>
    <line x1="362" y1="283" x2="362" y2="292" stroke="#021820" stroke-width="0.4" opacity="0.45"/>
    <line x1="382" y1="283" x2="382" y2="292" stroke="#021820" stroke-width="0.4" opacity="0.45"/>
    <line x1="345" y1="288" x2="358" y2="288" stroke="#021820" stroke-width="0.4" opacity="0.4"/>
    <line x1="365" y1="288" x2="378" y2="288" stroke="#021820" stroke-width="0.4" opacity="0.4"/>

    <rect x="342" y="293" width="68" height="7" rx="1" fill="url(#rowC)" stroke="#1D9E75" stroke-width="0.6" opacity="0.82"/>
    <line x1="362" y1="293" x2="362" y2="300" stroke="#021820" stroke-width="0.4" opacity="0.45"/>
    <line x1="382" y1="293" x2="382" y2="300" stroke="#021820" stroke-width="0.4" opacity="0.45"/>

    <!-- ══════════════════════════════════════════════════════ -->
    <!-- WATER below dock — calm sea with reflections          -->
    <!-- ══════════════════════════════════════════════════════ -->
    <rect x="45" y="330" width="410" height="60" fill="url(#water)" opacity="0.7"/>

    <!-- Reflection lines (horizontal wavelets) -->
    <line x1="80"  y1="340" x2="170" y2="340" stroke="#1D9E75" stroke-width="0.7" opacity="0.25"/>
    <line x1="200" y1="340" x2="320" y2="340" stroke="#1D9E75" stroke-width="0.7" opacity="0.3"/>
    <line x1="340" y1="340" x2="420" y2="340" stroke="#1D9E75" stroke-width="0.7" opacity="0.25"/>

    <line x1="60"  y1="350" x2="140" y2="350" stroke="#1D9E75" stroke-width="0.6" opacity="0.2"/>
    <line x1="170" y1="350" x2="260" y2="350" stroke="#1D9E75" stroke-width="0.6" opacity="0.22"/>
    <line x1="290" y1="350" x2="380" y2="350" stroke="#1D9E75" stroke-width="0.6" opacity="0.2"/>
    <line x1="395" y1="350" x2="440" y2="350" stroke="#1D9E75" stroke-width="0.6" opacity="0.18"/>

    <line x1="100" y1="362" x2="200" y2="362" stroke="#21908C" stroke-width="0.6" opacity="0.18"/>
    <line x1="230" y1="362" x2="300" y2="362" stroke="#21908C" stroke-width="0.6" opacity="0.2"/>
    <line x1="320" y1="362" x2="395" y2="362" stroke="#21908C" stroke-width="0.6" opacity="0.18"/>

    <line x1="65"  y1="374" x2="155" y2="374" stroke="#21908C" stroke-width="0.5" opacity="0.15"/>
    <line x1="180" y1="374" x2="265" y2="374" stroke="#21908C" stroke-width="0.5" opacity="0.17"/>
    <line x1="290" y1="374" x2="370" y2="374" stroke="#21908C" stroke-width="0.5" opacity="0.15"/>

    <!-- Ship reflections (very faint vertical streaks) -->
    <rect x="100" y="330" width="80" height="3" fill="#0F6E56" opacity="0.18"/>
    <rect x="210" y="330" width="100" height="4" fill="#0F6E56" opacity="0.2"/>
    <rect x="342" y="330" width="68" height="3" fill="#0F6E56" opacity="0.18"/>

    <!-- ══════════════════════════════════════════════════════ -->
    <!-- R API CONNECTION — wire from R logo to flagship mast  -->
    <!-- Curving connection line, dashed                       -->
    <!-- ══════════════════════════════════════════════════════ -->

    <!-- R logo / client (bottom-left) -->
    <ellipse cx="92" cy="395" rx="14" ry="11" fill="#08382C" stroke="#FDE725" stroke-width="1.8" opacity="0.97"/>
    <text font-family="serif" font-style="italic" font-weight="700" font-size="15"
      fill="#FDE725" text-anchor="middle" x="92" y="400" opacity="0.97">R</text>
    <!-- R glow -->
    <circle cx="92" cy="395" r="20" fill="#FDE725" opacity="0.1"/>

    <!-- API connection — dashed line from R to flag mast -->
    <path d="M 106,395 Q 170,370 200,300 Q 230,230 259,180"
      fill="none" stroke="#FDE725" stroke-width="1.4"
      stroke-dasharray="5 4" opacity="0.7"/>

    <!-- API endpoint dots along connection -->
    <circle cx="106" cy="395" r="2" fill="#FDE725" opacity="0.85"/>
    <circle cx="180" cy="350" r="1.5" fill="#FDE725" opacity="0.6"/>
    <circle cx="220" cy="260" r="1.5" fill="#FDE725" opacity="0.65"/>

    <!-- ══════════════════════════════════════════════════════ -->
    <!-- SEAGULLS — tiny silhouettes (decorative)              -->
    <!-- ══════════════════════════════════════════════════════ -->
    <path d="M 130,165 q 3,-3 6,0 q 3,-3 6,0" fill="none"
      stroke="#80CBC4" stroke-width="0.9" stroke-linecap="round" opacity="0.55"/>
    <path d="M 165,180 q 2.5,-2.5 5,0 q 2.5,-2.5 5,0" fill="none"
      stroke="#80CBC4" stroke-width="0.8" stroke-linecap="round" opacity="0.5"/>
    <path d="M 320,175 q 2.5,-2.5 5,0 q 2.5,-2.5 5,0" fill="none"
      stroke="#80CBC4" stroke-width="0.8" stroke-linecap="round" opacity="0.45"/>

    <!-- ══════════════════════════════════════════════════════ -->
    <!-- READ/WRITE BADGE — top-left, declares the function    -->
    <!-- ══════════════════════════════════════════════════════ -->
    <rect x="60" y="155" width="58" height="14" rx="3.5"
      fill="#08382C" stroke="#0F6E56" stroke-width="1" opacity="0.9"/>
    <!-- Read arrow ← -->
    <line x1="68" y1="162" x2="78" y2="162" stroke="#FDE725" stroke-width="1.2" stroke-linecap="round" opacity="0.85"/>
    <polygon points="70,160 66,162 70,164" fill="#FDE725" opacity="0.85"/>
    <!-- Write arrow → -->
    <line x1="100" y1="162" x2="110" y2="162" stroke="#80CBC4" stroke-width="1.2" stroke-linecap="round" opacity="0.85"/>
    <polygon points="108,160 112,162 108,164" fill="#80CBC4" opacity="0.85"/>
    <!-- divider -->
    <line x1="89" y1="158" x2="89" y2="166" stroke="#1D9E75" stroke-width="0.6" opacity="0.55"/>
    <text font-family="monospace" font-size="5.5" fill="#80CBC4" opacity="0.65"
      text-anchor="middle" x="89" y="178">read · write</text>

    <!-- SeaTable hint label bottom -->
    <text font-family="monospace" font-size="6.5" fill="#1D9E75" opacity="0.55"
      text-anchor="middle" x="250" y="410">SeaTable · R · API</text>

  </g>

  <!-- Hex border — parser teal -->
  <polygon points="250,30 455,145 455,375 250,490 45,375 45,145"
    fill="none" stroke="#0F6E56" stroke-width="11" stroke-linejoin="round"/>
  <polygon points="250,44 441,153 441,367 250,476 59,367 59,153"
    fill="none" stroke="#1D9E75" stroke-width="1.5" stroke-linejoin="round" opacity="0.55"/>

  <!-- Package name -->
  <text font-family="monospace" font-weight="700" font-size="28"
    fill="#80CBC4" text-anchor="middle" x="250" y="545" letter-spacing="1">harbouR</text>
</svg>
